<?xml version="1.0" encoding="UTF-8" ?>
<!DOCTYPE svg PUBLIC "-//W3C//DTD SVG 1.1//EN" "http://www.w3.org/Graphics/SVG/1.1/DTD/svg11.dtd">
<svg width="240pt" height="240pt" viewBox="0 0 240 240" version="1.1" xmlns="http://www.w3.org/2000/svg">
<g id="#049ef1ff">
<path fill="#049ef1" opacity="1.00" d=" M 83.98 24.95 C 100.91 15.61 121.22 14.12 139.94 17.87 C 154.20 20.69 167.78 27.61 177.80 38.23 C 188.75 49.67 195.26 64.83 197.69 80.37 C 184.21 80.38 170.74 80.38 157.26 80.37 C 155.13 72.14 151.28 63.92 144.40 58.63 C 136.73 52.67 126.59 51.04 117.12 51.65 C 106.89 52.37 97.08 58.13 91.83 66.99 C 87.23 74.27 86.44 83.10 85.71 91.47 C 73.68 82.47 61.64 73.48 49.62 64.47 C 54.70 47.07 68.46 33.55 83.98 24.95 Z" />
<path fill="#049ef1" opacity="1.00" d=" M 43.24 77.90 C 63.89 93.28 84.49 108.72 105.10 124.16 C 84.90 139.19 64.85 154.43 44.56 169.34 C 42.08 157.39 41.50 145.16 41.13 133.00 C 40.85 114.62 40.83 96.15 43.24 77.90 Z" />
<path fill="#049ef1" opacity="1.00" d=" M 107.32 107.63 C 137.88 107.62 168.44 107.63 199.00 107.63 C 198.96 120.08 199.09 132.55 198.93 145.00 C 198.47 161.33 195.62 178.35 186.08 192.01 C 175.02 208.06 157.24 219.16 138.08 222.51 C 119.33 225.81 99.13 224.03 82.31 214.64 C 69.48 207.42 58.25 196.66 52.17 183.09 C 63.57 174.55 74.99 166.04 86.38 157.50 C 87.30 164.96 89.74 172.46 94.99 178.03 C 100.85 185.02 110.08 188.32 119.03 188.39 C 129.55 188.74 140.65 185.83 148.36 178.35 C 154.37 172.36 158.15 164.26 159.25 155.87 C 159.85 151.54 159.66 147.17 159.68 142.82 C 141.80 142.81 123.92 142.82 106.04 142.81 C 114.06 136.76 122.13 130.78 130.16 124.73 C 122.56 119.02 114.92 113.35 107.32 107.63 Z" />
</g>
</svg>
